<svg width="1903" height="1034" xmlns="http://www.w3.org/2000/svg"><g><path d="M-17,-118L-110,105L29,72Z" fill="#fdffe0" stroke="#fdffe0"/><path d="M-17,-118L29,72L64,-25Z" fill="#fdfee1" stroke="#fdfee1"/><path d="M-17,-118L64,-25L138,-41Z" fill="#f9fde2" stroke="#f9fde2"/><path d="M-17,-118L138,-41L269,-78Z" fill="#f2fae1" stroke="#f2fae1"/><path d="M-17,-118L269,-78L855,-68Z" fill="#dbf1db" stroke="#dbf1db"/><path d="M-17,-118L855,-68L1394,-115Z" fill="#b5e3de" stroke="#b5e3de"/><path d="M64,-25L29,72L138,-41Z" fill="#f8fcde" stroke="#f8fcde"/><path d="M138,-41L29,72L240,47Z" fill="#effadb" stroke="#effadb"/><path d="M138,-41L240,47L269,-78Z" fill="#eaf7dc" stroke="#eaf7dc"/><path d="M269,-78L240,47L287,15Z" fill="#e5f5da" stroke="#e5f5da"/><path d="M269,-78L287,15L487,-57Z" fill="#ddf2d9" stroke="#ddf2d9"/><path d="M269,-78L487,-57L855,-68Z" fill="#caead8" stroke="#caead8"/><path d="M487,-57L287,15L478,67Z" fill="#d5efd5" stroke="#d5efd5"/><path d="M487,-57L478,67L566,-43Z" fill="#cdebd5" stroke="#cdebd5"/><path d="M487,-57L566,-43L707,-44Z" fill="#c5e9d8" stroke="#c5e9d8"/><path d="M487,-57L707,-44L855,-68Z" fill="#bbe5da" stroke="#bbe5da"/><path d="M566,-43L478,67L592,100Z" fill="#c4ead3" stroke="#c4ead3"/><path d="M566,-43L592,100L707,-44Z" fill="#c1e7d6" stroke="#c1e7d6"/><path d="M707,-44L592,100L761,27Z" fill="#b7e5d6" stroke="#b7e5d6"/><path d="M707,-44L761,27L855,-68Z" fill="#b2e1da" stroke="#b2e1da"/><path d="M855,-68L761,27L883,117Z" fill="#a9dfd8" stroke="#a9dfd8"/><path d="M855,-68L883,117L967,108Z" fill="#9fddd8" stroke="#9fddd8"/><path d="M855,-68L967,108L1021,-31Z" fill="#a0dbdc" stroke="#a0dbdc"/><path d="M855,-68L1021,-31L1138,-43Z" fill="#9fd6dd" stroke="#9fd6dd"/><path d="M855,-68L1138,-43L1394,-115Z" fill="#9acadb" stroke="#9acadb"/><path d="M1021,-31L967,108L1096,5Z" fill="#9ad4d8" stroke="#9ad4d8"/><path d="M1021,-31L1096,5L1138,-43Z" fill="#9cced9" stroke="#9cced9"/><path d="M1138,-43L1096,5L1178,-32Z" fill="#9acad8" stroke="#9acad8"/><path d="M1138,-43L1178,-32L1394,-115Z" fill="#97c0d7" stroke="#97c0d7"/><path d="M1178,-32L1096,5L1243,76Z" fill="#97c6d4" stroke="#97c6d4"/><path d="M1178,-32L1243,76L1394,-115Z" fill="#96bdd4" stroke="#96bdd4"/><path d="M1394,-115L1243,76L1400,70Z" fill="#92b6d0" stroke="#92b6d0"/><path d="M1394,-115L1400,70L1439,-69Z" fill="#91b0d0" stroke="#91b0d0"/><path d="M1394,-115L1439,-69L1627,-61Z" fill="#8fa9d1" stroke="#8fa9d1"/><path d="M1394,-115L1627,-61L1847,-105Z" fill="#8a9dcd" stroke="#8a9dcd"/><path d="M1439,-69L1400,70L1511,102Z" fill="#8cadcb" stroke="#8cadcb"/><path d="M1439,-69L1511,102L1627,-61Z" fill="#8ea6cb" stroke="#8ea6cb"/><path d="M1627,-61L1511,102L1677,102Z" fill="#859ec6" stroke="#859ec6"/><path d="M1627,-61L1677,102L1752,-50Z" fill="#8897c6" stroke="#8897c6"/><path d="M1627,-61L1752,-50L1847,-105Z" fill="#8692c8" stroke="#8692c8"/><path d="M1752,-50L1677,102L1802,43Z" fill="#8291c3" stroke="#8291c3"/><path d="M1752,-50L1802,43L1876,10Z" fill="#848bc2" stroke="#848bc2"/><path d="M1752,-50L1876,10L1847,-105Z" fill="#848ac5" stroke="#848ac5"/><path d="M1847,-105L1876,10L2048,-100Z" fill="#8181c3" stroke="#8181c3"/><path d="M2048,-100L1876,10L2004,48Z" fill="#8080bf" stroke="#8080bf"/><path d="M2048,-100L2004,48L2042,438Z" fill="#7080b5" stroke="#7080b5"/><path d="M2048,-100L2042,438L2072,1108Z" fill="#2f6fb5" stroke="#2f6fb5"/><path d="M-110,105L-117,241L32,241Z" fill="#e7ffd7" stroke="#e7ffd7"/><path d="M-110,105L32,241L29,72Z" fill="#eeffd9" stroke="#eeffd9"/><path d="M29,72L32,241L222,251Z" fill="#dffcd3" stroke="#dffcd3"/><path d="M29,72L222,251L240,47Z" fill="#e0f9d5" stroke="#e0f9d5"/><path d="M240,47L222,251L310,145Z" fill="#d4f5d1" stroke="#d4f5d1"/><path d="M240,47L310,145L287,15Z" fill="#dbf4d5" stroke="#dbf4d5"/><path d="M287,15L310,145L478,67Z" fill="#d3f1d3" stroke="#d3f1d3"/><path d="M478,67L310,145L429,186Z" fill="#c7efcf" stroke="#c7efcf"/><path d="M478,67L429,186L592,100Z" fill="#bfecce" stroke="#bfecce"/><path d="M592,100L429,186L583,237Z" fill="#b5ebcb" stroke="#b5ebcb"/><path d="M592,100L583,237L756,213Z" fill="#a9e6cd" stroke="#a9e6cd"/><path d="M592,100L756,213L761,27Z" fill="#abe4d2" stroke="#abe4d2"/><path d="M761,27L756,213L883,117Z" fill="#a1e0d3" stroke="#a1e0d3"/><path d="M883,117L756,213L878,244Z" fill="#94dfcf" stroke="#94dfcf"/><path d="M883,117L878,244L920,253Z" fill="#8dddd0" stroke="#8dddd0"/><path d="M883,117L920,253L967,108Z" fill="#90dcd3" stroke="#90dcd3"/><path d="M967,108L920,253L1105,232Z" fill="#87d7d0" stroke="#87d7d0"/><path d="M967,108L1105,232L1096,5Z" fill="#8fd1d3" stroke="#8fd1d3"/><path d="M1096,5L1105,232L1243,76Z" fill="#8dc9d0" stroke="#8dc9d0"/><path d="M1243,76L1105,232L1272,190Z" fill="#84c3cb" stroke="#84c3cb"/><path d="M1243,76L1272,190L1379,149Z" fill="#84bbca" stroke="#84bbca"/><path d="M1243,76L1379,149L1400,70Z" fill="#88b7cb" stroke="#88b7cb"/><path d="M1400,70L1379,149L1511,102Z" fill="#84aec8" stroke="#84aec8"/><path d="M1511,102L1379,149L1538,220Z" fill="#7caac4" stroke="#7caac4"/><path d="M1511,102L1538,220L1611,230Z" fill="#76a3c0" stroke="#76a3c0"/><path d="M1511,102L1611,230L1677,102Z" fill="#7a9fc1" stroke="#7a9fc1"/><path d="M1677,102L1611,230L1734,142Z" fill="#7598be" stroke="#7598be"/><path d="M1677,102L1734,142L1802,43Z" fill="#7b92c0" stroke="#7b92c0"/><path d="M1802,43L1734,142L1828,145Z" fill="#778dbd" stroke="#778dbd"/><path d="M1802,43L1828,145L1876,10Z" fill="#7b89be" stroke="#7b89be"/><path d="M1876,10L1828,145L2004,48Z" fill="#7983bc" stroke="#7983bc"/><path d="M2004,48L1828,145L1961,234Z" fill="#6f80b7" stroke="#6f80b7"/><path d="M2004,48L1961,234L2042,438Z" fill="#6380b0" stroke="#6380b0"/><path d="M-117,241L-119,988L-88,849Z" fill="#9ac9d2" stroke="#9ac9d2"/><path d="M-117,241L-88,849L-68,475Z" fill="#a6ebdd" stroke="#a6ebdd"/><path d="M-117,241L-68,475L-17,360Z" fill="#c9f8d7" stroke="#c9f8d7"/><path d="M-117,241L-17,360L32,241Z" fill="#dbfed4" stroke="#dbfed4"/><path d="M32,241L-17,360L80,277Z" fill="#d5fcd2" stroke="#d5fcd2"/><path d="M32,241L80,277L222,251Z" fill="#d5fbcf" stroke="#d5fbcf"/><path d="M222,251L80,277L169,354Z" fill="#c8f7cf" stroke="#c8f7cf"/><path d="M222,251L169,354L317,310Z" fill="#bef3cd" stroke="#bef3cd"/><path d="M222,251L317,310L310,145Z" fill="#c7f4cc" stroke="#c7f4cc"/><path d="M310,145L317,310L429,186Z" fill="#c2f2cb" stroke="#c2f2cb"/><path d="M429,186L317,310L434,317Z" fill="#b6efc8" stroke="#b6efc8"/><path d="M429,186L434,317L583,237Z" fill="#b2edc6" stroke="#b2edc6"/><path d="M583,237L434,317L596,267Z" fill="#a7e9c7" stroke="#a7e9c7"/><path d="M583,237L596,267L700,293Z" fill="#a0e7c9" stroke="#a0e7c9"/><path d="M583,237L700,293L756,213Z" fill="#9ee5ca" stroke="#9ee5ca"/><path d="M756,213L700,293L826,295Z" fill="#92e1cb" stroke="#92e1cb"/><path d="M756,213L826,295L878,244Z" fill="#8fe0cc" stroke="#8fe0cc"/><path d="M878,244L826,295L920,253Z" fill="#88ddcc" stroke="#88ddcc"/><path d="M920,253L826,295L923,358Z" fill="#7ddace" stroke="#7ddace"/><path d="M920,253L923,358L1091,292Z" fill="#76d5ce" stroke="#76d5ce"/><path d="M920,253L1091,292L1105,232Z" fill="#7ed3cb" stroke="#7ed3cb"/><path d="M1105,232L1091,292L1272,190Z" fill="#7dc8c9" stroke="#7dc8c9"/><path d="M1272,190L1091,292L1293,380Z" fill="#72c0c7" stroke="#72c0c7"/><path d="M1272,190L1293,380L1344,347Z" fill="#6bb7c5" stroke="#6bb7c5"/><path d="M1272,190L1344,347L1379,149Z" fill="#78b8c4" stroke="#78b8c4"/><path d="M1379,149L1344,347L1495,278Z" fill="#72b1c0" stroke="#72b1c0"/><path d="M1379,149L1495,278L1538,220Z" fill="#75abc1" stroke="#75abc1"/><path d="M1538,220L1495,278L1611,230Z" fill="#6fa4bd" stroke="#6fa4bd"/><path d="M1611,230L1495,278L1615,379Z" fill="#649fbd" stroke="#649fbd"/><path d="M1611,230L1615,379L1718,278Z" fill="#6298bb" stroke="#6298bb"/><path d="M1611,230L1718,278L1734,142Z" fill="#6e97bb" stroke="#6e97bb"/><path d="M1734,142L1718,278L1828,145Z" fill="#6f90ba" stroke="#6f90ba"/><path d="M1828,145L1718,278L1906,284Z" fill="#688bb5" stroke="#688bb5"/><path d="M1828,145L1906,284L1961,234Z" fill="#6683b4" stroke="#6683b4"/><path d="M1961,234L1906,284L1984,366Z" fill="#587db2" stroke="#587db2"/><path d="M1961,234L1984,366L2042,438Z" fill="#4d79b2" stroke="#4d79b2"/><path d="M-17,360L-68,475L38,464Z" fill="#b9f2d9" stroke="#b9f2d9"/><path d="M-17,360L38,464L169,354Z" fill="#bbf3d5" stroke="#bbf3d5"/><path d="M-17,360L169,354L80,277Z" fill="#c8f7d2" stroke="#c8f7d2"/><path d="M169,354L38,464L206,434Z" fill="#afeed4" stroke="#afeed4"/><path d="M169,354L206,434L279,414Z" fill="#abecd1" stroke="#abecd1"/><path d="M169,354L279,414L317,310Z" fill="#b0eecf" stroke="#b0eecf"/><path d="M317,310L279,414L397,406Z" fill="#a5eace" stroke="#a5eace"/><path d="M317,310L397,406L434,317Z" fill="#a7eacb" stroke="#a7eacb"/><path d="M434,317L397,406L541,414Z" fill="#98e4cb" stroke="#98e4cb"/><path d="M434,317L541,414L596,267Z" fill="#9be5c9" stroke="#9be5c9"/><path d="M596,267L541,414L700,293Z" fill="#94e3cb" stroke="#94e3cb"/><path d="M700,293L541,414L743,431Z" fill="#83ddcd" stroke="#83ddcd"/><path d="M700,293L743,431L826,295Z" fill="#82dccd" stroke="#82dccd"/><path d="M826,295L743,431L863,461Z" fill="#70d6d0" stroke="#70d6d0"/><path d="M826,295L863,461L923,358Z" fill="#70d5d0" stroke="#70d5d0"/><path d="M923,358L863,461L1004,485Z" fill="#5ccfd4" stroke="#5ccfd4"/><path d="M923,358L1004,485L1091,292Z" fill="#64cdd1" stroke="#64cdd1"/><path d="M1091,292L1004,485L1101,511Z" fill="#57c4d1" stroke="#57c4d1"/><path d="M1091,292L1101,511L1249,489Z" fill="#54bcce" stroke="#54bcce"/><path d="M1091,292L1249,489L1293,380Z" fill="#5cb9cb" stroke="#5cb9cb"/><path d="M1293,380L1249,489L1363,479Z" fill="#4bacca" stroke="#4bacca"/><path d="M1293,380L1363,479L1344,347Z" fill="#54adc8" stroke="#54adc8"/><path d="M1344,347L1363,479L1495,278Z" fill="#5aa9c5" stroke="#5aa9c5"/><path d="M1495,278L1363,479L1533,505Z" fill="#4c9fc5" stroke="#4c9fc5"/><path d="M1495,278L1533,505L1615,379Z" fill="#519ac1" stroke="#519ac1"/><path d="M1615,379L1533,505L1650,400Z" fill="#4692c1" stroke="#4692c1"/><path d="M1615,379L1650,400L1718,278Z" fill="#5592bc" stroke="#5592bc"/><path d="M1718,278L1650,400L1777,411Z" fill="#518dbb" stroke="#518dbb"/><path d="M1718,278L1777,411L1906,284Z" fill="#5787b7" stroke="#5787b7"/><path d="M1906,284L1777,411L1984,366Z" fill="#4d7db6" stroke="#4d7db6"/><path d="M1984,366L1777,411L1837,492Z" fill="#3e7ab9" stroke="#3e7ab9"/><path d="M1984,366L1837,492L2042,438Z" fill="#3a73b7" stroke="#3a73b7"/><path d="M-68,475L-88,849L-38,542Z" fill="#9fd7d6" stroke="#9fd7d6"/><path d="M-68,475L-38,542L38,464Z" fill="#abeedb" stroke="#abeedb"/><path d="M38,464L-38,542L95,644Z" fill="#a1e5d8" stroke="#a1e5d8"/><path d="M38,464L95,644L194,547Z" fill="#99e1d6" stroke="#99e1d6"/><path d="M38,464L194,547L206,434Z" fill="#a0e9d6" stroke="#a0e9d6"/><path d="M206,434L194,547L279,414Z" fill="#9be7d4" stroke="#9be7d4"/><path d="M279,414L194,547L337,594Z" fill="#8ce1d4" stroke="#8ce1d4"/><path d="M279,414L337,594L397,406Z" fill="#8fe3d1" stroke="#8fe3d1"/><path d="M397,406L337,594L514,606Z" fill="#7cd9d0" stroke="#7cd9d0"/><path d="M397,406L514,606L541,414Z" fill="#80dcce" stroke="#80dcce"/><path d="M541,414L514,606L597,603Z" fill="#6ed2cf" stroke="#6ed2cf"/><path d="M541,414L597,603L743,431Z" fill="#6fd7d0" stroke="#6fd7d0"/><path d="M743,431L597,603L804,573Z" fill="#5ecdd2" stroke="#5ecdd2"/><path d="M743,431L804,573L863,461Z" fill="#5dcfd4" stroke="#5dcfd4"/><path d="M863,461L804,573L1014,531Z" fill="#4dc9d6" stroke="#4dc9d6"/><path d="M863,461L1014,531L1004,485Z" fill="#4cc9d6" stroke="#4cc9d6"/><path d="M1004,485L1014,531L1101,511Z" fill="#46c0d4" stroke="#46c0d4"/><path d="M1101,511L1014,531L1052,565Z" fill="#42bad3" stroke="#42bad3"/><path d="M1101,511L1052,565L1200,551Z" fill="#40b3d1" stroke="#40b3d1"/><path d="M1101,511L1200,551L1249,489Z" fill="#40b2d0" stroke="#40b2d0"/><path d="M1249,489L1200,551L1340,552Z" fill="#3ca8cd" stroke="#3ca8cd"/><path d="M1249,489L1340,552L1363,479Z" fill="#3ea7cc" stroke="#3ea7cc"/><path d="M1363,479L1340,552L1488,569Z" fill="#389bc9" stroke="#389bc9"/><path d="M1363,479L1488,569L1533,505Z" fill="#3799c8" stroke="#3799c8"/><path d="M1533,505L1488,569L1672,617Z" fill="#3086c2" stroke="#3086c2"/><path d="M1533,505L1672,617L1650,400Z" fill="#348bc3" stroke="#348bc3"/><path d="M1650,400L1672,617L1754,605Z" fill="#2e7ec0" stroke="#2e7ec0"/><path d="M1650,400L1754,605L1777,411Z" fill="#3884bf" stroke="#3884bf"/><path d="M1777,411L1754,605L1837,492Z" fill="#2f7bbe" stroke="#2f7bbe"/><path d="M1837,492L1754,605L1936,635Z" fill="#2669b9" stroke="#2669b9"/><path d="M1837,492L1936,635L1986,558Z" fill="#2565b8" stroke="#2565b8"/><path d="M1837,492L1986,558L2042,438Z" fill="#2b6eb9" stroke="#2b6eb9"/><path d="M2042,438L1986,558L2010,692Z" fill="#2363b5" stroke="#2363b5"/><path d="M2042,438L2010,692L2048,847Z" fill="#1d50ae" stroke="#1d50ae"/><path d="M2042,438L2048,847L2072,1108Z" fill="#1334a4" stroke="#1334a4"/><path d="M-38,542L-88,849L-17,707Z" fill="#99c7d0" stroke="#99c7d0"/><path d="M-38,542L-17,707L52,674Z" fill="#9dd3d3" stroke="#9dd3d3"/><path d="M-38,542L52,674L95,644Z" fill="#9bd6d3" stroke="#9bd6d3"/><path d="M95,644L52,674L148,710Z" fill="#91c8ce" stroke="#91c8ce"/><path d="M95,644L148,710L194,547Z" fill="#8fcfd0" stroke="#8fcfd0"/><path d="M194,547L148,710L337,594Z" fill="#89cfcf" stroke="#89cfcf"/><path d="M337,594L148,710L355,731Z" fill="#7fc0ca" stroke="#7fc0ca"/><path d="M337,594L355,731L476,692Z" fill="#75bec7" stroke="#75bec7"/><path d="M337,594L476,692L514,606Z" fill="#73c4c9" stroke="#73c4c9"/><path d="M514,606L476,692L597,603Z" fill="#69c0c9" stroke="#69c0c9"/><path d="M597,603L476,692L637,766Z" fill="#62b4c6" stroke="#62b4c6"/><path d="M597,603L637,766L755,666Z" fill="#59b2c8" stroke="#59b2c8"/><path d="M597,603L755,666L759,637Z" fill="#58b9cb" stroke="#58b9cb"/><path d="M597,603L759,637L804,573Z" fill="#58bfce" stroke="#58bfce"/><path d="M759,637L755,666L915,709Z" fill="#4baecb" stroke="#4baecb"/><path d="M759,637L915,709L804,573Z" fill="#4bb3cd" stroke="#4bb3cd"/><path d="M804,573L915,709L1014,531Z" fill="#45b8d1" stroke="#45b8d1"/><path d="M1014,531L915,709L1052,565Z" fill="#40b3d1" stroke="#40b3d1"/><path d="M1052,565L915,709L1122,725Z" fill="#3aa2cb" stroke="#3aa2cb"/><path d="M1052,565L1122,725L1200,551Z" fill="#3ba4cc" stroke="#3ba4cc"/><path d="M1200,551L1122,725L1214,742Z" fill="#3593c7" stroke="#3593c7"/><path d="M1200,551L1214,742L1364,670Z" fill="#338fc5" stroke="#338fc5"/><path d="M1200,551L1364,670L1340,552Z" fill="#3698c8" stroke="#3698c8"/><path d="M1340,552L1364,670L1488,569Z" fill="#338fc5" stroke="#338fc5"/><path d="M1488,569L1364,670L1496,746Z" fill="#2d7cbf" stroke="#2d7cbf"/><path d="M1488,569L1496,746L1570,716Z" fill="#2973bc" stroke="#2973bc"/><path d="M1488,569L1570,716L1672,617Z" fill="#2a76bd" stroke="#2a76bd"/><path d="M1672,617L1570,716L1658,843Z" fill="#225eb6" stroke="#225eb6"/><path d="M1672,617L1658,843L1778,662Z" fill="#215cb5" stroke="#215cb5"/><path d="M1672,617L1778,662L1754,605Z" fill="#2669b9" stroke="#2669b9"/><path d="M1754,605L1778,662L1936,635Z" fill="#225fb6" stroke="#225fb6"/><path d="M1936,635L1778,662L1845,701Z" fill="#1f56b3" stroke="#1f56b3"/><path d="M1936,635L1845,701L2010,692Z" fill="#1c4db0" stroke="#1c4db0"/><path d="M1936,635L2010,692L1986,558Z" fill="#1f56b2" stroke="#1f56b2"/><path d="M-17,707L-88,849L66,798Z" fill="#93b6ca" stroke="#93b6ca"/><path d="M-17,707L66,798L52,674Z" fill="#94c0cc" stroke="#94c0cc"/><path d="M52,674L66,798L148,710Z" fill="#8ebecb" stroke="#8ebecb"/><path d="M148,710L66,798L144,825Z" fill="#88b3c7" stroke="#88b3c7"/><path d="M148,710L144,825L317,799Z" fill="#80afc5" stroke="#80afc5"/><path d="M148,710L317,799L355,731Z" fill="#7bb3c5" stroke="#7bb3c5"/><path d="M355,731L317,799L470,903Z" fill="#6ca2be" stroke="#6ca2be"/><path d="M355,731L470,903L476,692Z" fill="#69a7bf" stroke="#69a7bf"/><path d="M476,692L470,903L593,847Z" fill="#5e9cbc" stroke="#5e9cbc"/><path d="M476,692L593,847L637,766Z" fill="#5ca3c0" stroke="#5ca3c0"/><path d="M637,766L593,847L667,801Z" fill="#5399bf" stroke="#5399bf"/><path d="M637,766L667,801L755,666Z" fill="#52a4c4" stroke="#52a4c4"/><path d="M755,666L667,801L831,760Z" fill="#4ba1c5" stroke="#4ba1c5"/><path d="M755,666L831,760L915,709Z" fill="#45a5c8" stroke="#45a5c8"/><path d="M831,760L667,801L830,896Z" fill="#4391c0" stroke="#4391c0"/><path d="M831,760L830,896L987,854Z" fill="#3789c1" stroke="#3789c1"/><path d="M831,760L987,854L915,709Z" fill="#3995c6" stroke="#3995c6"/><path d="M915,709L987,854L1122,725Z" fill="#3491c6" stroke="#3491c6"/><path d="M1122,725L987,854L1142,817Z" fill="#2f83c1" stroke="#2f83c1"/><path d="M1122,725L1142,817L1214,742Z" fill="#2f83c1" stroke="#2f83c1"/><path d="M1214,742L1142,817L1274,839Z" fill="#2b76bd" stroke="#2b76bd"/><path d="M1214,742L1274,839L1364,670Z" fill="#2c79be" stroke="#2c79be"/><path d="M1364,670L1274,839L1405,826Z" fill="#286ebb" stroke="#286ebb"/><path d="M1364,670L1405,826L1443,795Z" fill="#276cba" stroke="#276cba"/><path d="M1364,670L1443,795L1496,746Z" fill="#286fbb" stroke="#286fbb"/><path d="M1496,746L1443,795L1658,843Z" fill="#205ab4" stroke="#205ab4"/><path d="M1496,746L1658,843L1570,716Z" fill="#215bb4" stroke="#215bb4"/><path d="M1778,662L1658,843L1741,891Z" fill="#1a47ae" stroke="#1a47ae"/><path d="M1778,662L1741,891L1845,701Z" fill="#1b4baf" stroke="#1b4baf"/><path d="M1845,701L1741,891L1936,823Z" fill="#163baa" stroke="#163baa"/><path d="M1845,701L1936,823L2010,692Z" fill="#1740ac" stroke="#1740ac"/><path d="M2010,692L1936,823L2048,847Z" fill="#1336a6" stroke="#1336a6"/><path d="M-88,849L-119,988L78,988Z" fill="#8896c0" stroke="#8896c0"/><path d="M-88,849L78,988L66,798Z" fill="#8aa2c3" stroke="#8aa2c3"/><path d="M66,798L78,988L140,946Z" fill="#8199bf" stroke="#8199bf"/><path d="M66,798L140,946L144,825Z" fill="#82a3c2" stroke="#82a3c2"/><path d="M144,825L140,946L317,799Z" fill="#7a9fc0" stroke="#7a9fc0"/><path d="M317,799L140,946L325,1026Z" fill="#6f90ba" stroke="#6f90ba"/><path d="M317,799L325,1026L448,915Z" fill="#668eb8" stroke="#668eb8"/><path d="M317,799L448,915L470,903Z" fill="#6494b9" stroke="#6494b9"/><path d="M470,903L448,915L479,1056Z" fill="#5981b3" stroke="#5981b3"/><path d="M470,903L479,1056L611,1033Z" fill="#5077b0" stroke="#5077b0"/><path d="M470,903L611,1033L593,847Z" fill="#5183b6" stroke="#5183b6"/><path d="M593,847L611,1033L661,1009Z" fill="#497ab4" stroke="#497ab4"/><path d="M593,847L661,1009L667,801Z" fill="#4c89ba" stroke="#4c89ba"/><path d="M667,801L661,1009L830,896Z" fill="#4383ba" stroke="#4383ba"/><path d="M830,896L661,1009L879,1004Z" fill="#3772b7" stroke="#3772b7"/><path d="M830,896L879,1004L987,854Z" fill="#3078bc" stroke="#3078bc"/><path d="M987,854L879,1004L1006,991Z" fill="#286fbb" stroke="#286fbb"/><path d="M987,854L1006,991L1113,973Z" fill="#276ab9" stroke="#276ab9"/><path d="M987,854L1113,973L1142,817Z" fill="#2972bb" stroke="#2972bb"/><path d="M1142,817L1113,973L1228,980Z" fill="#2362b7" stroke="#2362b7"/><path d="M1142,817L1228,980L1274,839Z" fill="#2566b8" stroke="#2566b8"/><path d="M1274,839L1228,980L1386,973Z" fill="#1f54b2" stroke="#1f54b2"/><path d="M1274,839L1386,973L1405,826Z" fill="#2059b3" stroke="#2059b3"/><path d="M1405,826L1386,973L1457,962Z" fill="#1b4baf" stroke="#1b4baf"/><path d="M1405,826L1457,962L1443,795Z" fill="#1f55b3" stroke="#1f55b3"/><path d="M1443,795L1457,962L1658,843Z" fill="#1c4cb0" stroke="#1c4cb0"/><path d="M1658,843L1457,962L1634,978Z" fill="#153aaa" stroke="#153aaa"/><path d="M1658,843L1634,978L1741,891Z" fill="#1436a8" stroke="#1436a8"/><path d="M1741,891L1634,978L1760,973Z" fill="#0f2aa4" stroke="#0f2aa4"/><path d="M1741,891L1760,973L1938,982Z" fill="#0c21a1" stroke="#0c21a1"/><path d="M1741,891L1938,982L1936,823Z" fill="#0e25a3" stroke="#0e25a3"/><path d="M1936,823L1938,982L2052,948Z" fill="#0a1b9f" stroke="#0a1b9f"/><path d="M1936,823L2052,948L2048,847Z" fill="#0d25a1" stroke="#0d25a1"/><path d="M2048,847L2052,948L2072,1108Z" fill="#061199" stroke="#061199"/><path d="M-119,988L-23,1157L38,1105Z" fill="#8080b7" stroke="#8080b7"/><path d="M-119,988L38,1105L78,988Z" fill="#8285ba" stroke="#8285ba"/><path d="M78,988L38,1105L182,1071Z" fill="#767cb5" stroke="#767cb5"/><path d="M78,988L182,1071L140,946Z" fill="#7785b8" stroke="#7785b8"/><path d="M140,946L182,1071L325,1026Z" fill="#6d7fb5" stroke="#6d7fb5"/><path d="M325,1026L182,1071L370,1153Z" fill="#6374af" stroke="#6374af"/><path d="M325,1026L370,1153L479,1056Z" fill="#5971ac" stroke="#5971ac"/><path d="M325,1026L479,1056L448,915Z" fill="#5b7ab1" stroke="#5b7ab1"/><path d="M611,1033L479,1056L576,1091Z" fill="#496aad" stroke="#496aad"/><path d="M611,1033L576,1091L667,1150Z" fill="#4268ac" stroke="#4268ac"/><path d="M611,1033L667,1150L661,1009Z" fill="#4067ae" stroke="#4067ae"/><path d="M661,1009L667,1150L873,1048Z" fill="#3763af" stroke="#3763af"/><path d="M661,1009L873,1048L879,1004Z" fill="#3267b4" stroke="#3267b4"/><path d="M879,1004L873,1048L1006,991Z" fill="#2764b6" stroke="#2764b6"/><path d="M1006,991L873,1048L1023,1068Z" fill="#225db5" stroke="#225db5"/><path d="M1006,991L1023,1068L1113,973Z" fill="#215ab4" stroke="#215ab4"/><path d="M1113,973L1023,1068L1099,1112Z" fill="#1d50b1" stroke="#1d50b1"/><path d="M1113,973L1099,1112L1176,1094Z" fill="#1b4baf" stroke="#1b4baf"/><path d="M1113,973L1176,1094L1228,980Z" fill="#1d4eb0" stroke="#1d4eb0"/><path d="M1228,980L1176,1094L1362,1097Z" fill="#173fab" stroke="#173fab"/><path d="M1228,980L1362,1097L1386,973Z" fill="#1740ab" stroke="#1740ab"/><path d="M1386,973L1362,1097L1481,1072Z" fill="#1232a7" stroke="#1232a7"/><path d="M1386,973L1481,1072L1457,962Z" fill="#1538a9" stroke="#1538a9"/><path d="M1457,962L1481,1072L1634,978Z" fill="#1230a6" stroke="#1230a6"/><path d="M1634,978L1481,1072L1635,1067Z" fill="#0d23a2" stroke="#0d23a2"/><path d="M1634,978L1635,1067L1707,1054Z" fill="#0b1da0" stroke="#0b1da0"/><path d="M1634,978L1707,1054L1760,973Z" fill="#0c20a1" stroke="#0c20a1"/><path d="M1760,973L1707,1054L1880,1088Z" fill="#07119c" stroke="#07119c"/><path d="M1760,973L1880,1088L1938,982Z" fill="#060f9c" stroke="#060f9c"/><path d="M1938,982L1880,1088L2072,1108Z" fill="#000096" stroke="#000096"/><path d="M1938,982L2072,1108L2052,948Z" fill="#030897" stroke="#030897"/><path d="M-23,1157L667,1150L370,1153Z" fill="#5e73a9" stroke="#5e73a9"/><path d="M-23,1157L370,1153L182,1071Z" fill="#6e79af" stroke="#6e79af"/><path d="M-23,1157L182,1071L38,1105Z" fill="#797db3" stroke="#797db3"/><path d="M370,1153L667,1150L576,1091Z" fill="#4b6ba8" stroke="#4b6ba8"/><path d="M370,1153L576,1091L479,1056Z" fill="#516da9" stroke="#516da9"/><path d="M667,1150L2072,1108L1099,1112Z" fill="#163da6" stroke="#163da6"/><path d="M667,1150L1099,1112L873,1048Z" fill="#285eb0" stroke="#285eb0"/><path d="M873,1048L1099,1112L1023,1068Z" fill="#1f57b1" stroke="#1f57b1"/><path d="M1099,1112L2072,1108L1362,1097Z" fill="#0f28a0" stroke="#0f28a0"/><path d="M1099,1112L1362,1097L1176,1094Z" fill="#1843a9" stroke="#1843a9"/><path d="M1362,1097L2072,1108L1880,1088Z" fill="#060f99" stroke="#060f99"/><path d="M1362,1097L1880,1088L1635,1067Z" fill="#0b1d9e" stroke="#0b1d9e"/><path d="M1362,1097L1635,1067L1481,1072Z" fill="#0f29a2" stroke="#0f29a2"/><path d="M1635,1067L1880,1088L1707,1054Z" fill="#07129c" stroke="#07129c"/></g></svg>